<?xml version="1.0" encoding="utf-8" ?>
<svg xmlns="http://www.w3.org/2000/svg" xmlns:xlink="http://www.w3.org/1999/xlink" version="1.1" height="235" width="360">
  <metadata xmlns:set="https://github.com/hildjj/set-game">
    <set:num>2</set:num>
    <set:fill>Solid</set:fill>
    <set:color>green</set:color>
    <set:shape>Squiggle</set:shape>
  </metadata>
  <defs>
    <path class="setcolor setline" id="shape" d="m 180,33 c -13,6 -23,11 -28,26 -5,15 -1,31 7,58 7,23 0,36 -3,43 -4,7 -9,17 -9,30 0,13 21,18 33,12 11,-5 23,-14 28,-26 5,-12 1,-32 -7,-59 -5,-17 -3,-29 3,-42 4,-9 10,-18 9,-30 0,-13 -18,-19 -33,-12 z"></path>
    <style type="text/css">
      .setcolor {
        stroke: #75d23b;
        fill: #75d23b;
      }
      .setline {
        stroke-width: 4;
        stroke-linejoin: round;
      }
    </style>
  </defs>
  <rect x="5" y="5" height="225" width="350" rx="10" ry="10" fill="white" stroke="grey" stroke-width="2"></rect>
  <use x="-50" xlink:href="#shape"></use>
  <use x="50" xlink:href="#shape"></use>
</svg>